<?xml version="1.0" encoding="utf-8"?>
<!-- Generator: Adobe Illustrator 22.0.0, SVG Export Plug-In . SVG Version: 6.00 Build 0)  -->
<svg version="1.1" id="Capa_1" xmlns="http://www.w3.org/2000/svg" xmlns:xlink="http://www.w3.org/1999/xlink" x="0px" y="0px"
	 viewBox="0 0 512 512" style="enable-background:new 0 0 512 512;" xml:space="preserve">
<style type="text/css">
	.st0{fill:#FFFFFF;}
</style>
<g>
	<g>
		<path class="st0" d="M467.1,212.6L267.4,12.9c-11.8-11.7-30.8-11.6-42.5,0c-11.7,11.7-11.7,30.7,0,42.5L424.6,255
			c11.7,11.7,30.7,11.7,42.4,0C478.8,243.3,478.8,224.3,467.1,212.6z"/>
	</g>
</g>
<g>
	<g>
		<path class="st0" d="M210.1,82.9l-1.5,7.5c-10.6,53-36.3,103.3-71.1,144l108.6,108.6c40.8-34.8,90.4-61.2,143.4-71.8l7.5-1.5
			L210.1,82.9z"/>
	</g>
</g>
<g>
	<g>
		<path class="st0" d="M117.6,257l-74.3,74.2c-17.5,17.5-17.6,46,0,63.6l42.4,42.4c17.5,17.5,46,17.6,63.6,0l74.2-74.2L117.6,257z
			 M128.2,373.7c-5.9,5.9-15.4,5.9-21.2,0s-5.9-15.4,0-21.2l21.2-21.2c5.9-5.9,15.4-5.9,21.2,0s5.9,15.4,0,21.2L128.2,373.7z"/>
	</g>
</g>
<g>
	<g>
		<path class="st0" d="M286.3,445.3l20.4-20.4c17.6-17.6,17.6-46.1,0-63.6l-15.2-15.2c-8.4,5.6-16.4,11.7-24.2,18.3l18.1,18.1
			c5.8,5.8,5.9,15.3,0,21.2l-20.7,20.7l-30.5-29.5l-42.4,42.4l68.1,65.9c11.6,11.6,30.7,11.7,42.4,0c11.7-11.7,11.7-30.7,0-42.4
			L286.3,445.3z"/>
	</g>
</g>
<g>
	<g>
		<path class="st0" d="M346.9,0c-8.3,0-15,6.7-15,15v30c0,8.3,6.7,15,15,15c8.3,0,15-6.7,15-15V15C361.9,6.7,355.2,0,346.9,0z"/>
	</g>
</g>
<g>
	<g>
		<path class="st0" d="M466.9,120h-30c-8.3,0-15,6.7-15,15s6.7,15,15,15h30c8.3,0,15-6.7,15-15S475.2,120,466.9,120z"/>
	</g>
</g>
<g>
	<g>
		<path class="st0" d="M447.5,34.4c-5.9-5.9-15.4-5.9-21.2,0l-30,30c-5.9,5.9-5.9,15.4,0,21.2s15.4,5.9,21.2,0l30-30
			C453.3,49.7,453.3,40.3,447.5,34.4z"/>
	</g>
</g>
</svg>
