<svg id="Layer_1" data-name="Layer 1" xmlns="http://www.w3.org/2000/svg" viewBox="0 0 150 150"><defs><style>.cls-1{fill:#fff;}</style></defs><title>icon-bobcat</title><path class="cls-1" d="M121.06,68.74c-.16-.37-.76-1.63-.76-1.63l.77-2.24a3.47,3.47,0,0,0,.36-1.41,2.53,2.53,0,0,0-1.34-1.74c-.53-.14-1.13.1-1.59,1.13l-1.22,2.7a1.15,1.15,0,0,1-2.2,0,31.1,31.1,0,0,0-1.52-3.18,1.35,1.35,0,0,0-1.15-.62,2,2,0,0,0-1.52.66l-2,2.11-1.09-2.38a3.27,3.27,0,0,1,1.39-4.26,4.54,4.54,0,0,1,2.49-.34,13.63,13.63,0,0,1,1.82.29,22.07,22.07,0,0,0,3.47.53,6.6,6.6,0,0,0,2.51-.39c-1.43-1.17-9.79-8.23-9.79-8.23-.55-.47-1.28-1.1-1.23-1.84a1.21,1.21,0,0,1,1.64-1c.19.07,2.75,1.42,4.14,2a3.82,3.82,0,0,0-.84-2.81,68,68,0,0,1-4-5.51,33,33,0,0,0-.1-15.16c-1.68-7.3-.55-11.64,0-13.23-6.27,2.11-14.45,7.15-18.3,16.17a28.42,28.42,0,0,0-9.57-1.79,33.18,33.18,0,0,0-9.37,1.28C65.47,16.7,51.42,4,30.88,0A36.45,36.45,0,0,1,36.8,19.81c0,10.47,2.28,17.6,7.42,22.51a29.79,29.79,0,0,0-9.46,16.84,16.43,16.43,0,0,1,8.1-2.58C36.94,61.82,28.86,72,28.51,90c-.36,19,13.75,34.76,27.07,37.63-9-7.51-14-18.18-12.89-28.35,3.76,12.91,13.66,21.93,31.48,28.55,17.13,6.37,25.48,15.78,27.58,22.21,2.69-5.65,5.78-19.87-.51-32.23a122.11,122.11,0,0,0-8.65-13.82c-2.4-3.31-3-6.2-2.7-7.8.48-2.84,2.33-3.86,3.76-3.86a2.76,2.76,0,0,1,2,.83,3.65,3.65,0,0,1,.47,3.48h8c3.65,0,5.24-1.16,6.87-5.2a24,24,0,0,1,1.92,11.07,16.91,16.91,0,0,0,3-3.84c2.13-3.91,2.36-9.06.23-14.9,1-1,1.68-1.93,1.33-3.3a.54.54,0,0,0-.17-.35s-1.53-1-2.34-1.54a112.93,112.93,0,0,1-11.31,2.19l8.89-4.64c1-.52,1.25-1.08,2.26-5.16a1.07,1.07,0,0,1,2.13.19c0,1.93-.06,3.46-.12,4.33a1,1,0,0,0,.13.57c.19.21.74.63,1.54,1.44,2.41-4,3-6,3-6.24A4.86,4.86,0,0,0,121.06,68.74ZM82,47a6.14,6.14,0,0,1,5.37-2.67,7.88,7.88,0,0,1,4.31,1.2,17.19,17.19,0,0,1,4.6,4.55,9.29,9.29,0,0,0-1.74-.12,10.23,10.23,0,0,0-3.53.83,6.51,6.51,0,0,1-2.7.54,4.35,4.35,0,0,1-3.47-2.38,2.73,2.73,0,0,0-2.37-1.15.56.56,0,0,1-.48-.24A.49.49,0,0,1,82,47Zm2,9.33c15,2.57,19,9.59,19,9.59s-6.42-4.32-19.37-6.32a79.21,79.21,0,0,0-23.24.32C60.42,59.87,69,54.19,84,56.31Zm18.69,14.08s-10.06-1.76-18.52-.87A57.32,57.32,0,0,0,66,74.37c2.61-2.87,9.11-7.28,18.09-7.83C96.66,65.75,102.64,70.39,102.64,70.39Zm-20.11,44c-1-.08-16.29-3.34-17.64-18.38a19.38,19.38,0,0,0-3.64,4.89,28.94,28.94,0,0,1-4.31-12.08,15.88,15.88,0,0,0-2.78,4.45c-4-3.75-6.24-9.06-6.59-15.56-.29-5.34,1.32-10.37,4.68-13.62-3.95,10.66.22,20.15,1.64,22.23a10,10,0,0,1,2.73-2.52c.08-8.25,3.29-15.58,8.53-18.65,0,0-4.7,6.64-4.47,18a27.05,27.05,0,0,0,1.57,9.17,11.62,11.62,0,0,1,2.9-2.4c2-13.18,13.28-15.22,13.39-15.25-3.37,2.36-11.15,9.43-10,20.87.75,7.48,6.59,11.25,8.32,12.2a24.82,24.82,0,0,1,.36-9.18c.82-3.31,3.19-7.71,7.8-9.55a21,21,0,0,0-4.64,11.25A28.27,28.27,0,0,0,82.53,114.44Zm6.36-35A64.59,64.59,0,0,0,76,87.51s3.89-7.76,11.66-11c8.7-3.6,15.45-1.87,15.45-1.87A63.37,63.37,0,0,0,88.89,79.4Z"/></svg>