<?xml version="1.0" encoding="utf-8"?>
<!-- Generator: Adobe Illustrator 18.1.1, SVG Export Plug-In . SVG Version: 6.00 Build 0)  -->
<svg version="1.1" id="Layer_1" xmlns="http://www.w3.org/2000/svg" xmlns:xlink="http://www.w3.org/1999/xlink" x="0px" y="0px"
	 viewBox="0 0 40 40" enable-background="new 0 0 40 40" xml:space="preserve">
<path display="none" fill="#FFFFFF" d="M16.5,25.6l0.9,2.2c-0.9,0.3-1.7,0.6-2.6,0.8l-0.5-2.3C15,26.1,15.8,25.9,16.5,25.6
	 M9.4,28.5c0.9,0.3,1.8,0.4,2.7,0.4l0-2.4c-0.7,0-1.4-0.1-2.1-0.3L9.4,28.5z M28.2,24.3c0.7,0.1,1.4,0.4,2,0.7l1.1-2.1
	c-0.8-0.4-1.7-0.7-2.6-0.9L28.2,24.3z M23.2,22.3l0.7,2.3c0.7-0.2,1.5-0.4,2.1-0.4l-0.2-2.4C25,21.9,24.1,22.1,23.2,22.3 M19.4,24.1
	c-0.3,0.2-0.5,0.3-0.8,0.5l1.2,2.1c0.3-0.2,0.6-0.3,0.9-0.5c0.4-0.3,0.8-0.5,1.2-0.7l-1.1-2.1C20.3,23.6,19.8,23.8,19.4,24.1
	 M26,9.2c0,1-0.2,1.9-0.6,2.7L20,22.4c0,0-5.4-10.5-5.4-10.6C14.2,11,14,10.2,14,9.2c0-3.3,2.7-6,6-6S26,5.9,26,9.2 M23.6,9.2
	c0-2-1.6-3.6-3.6-3.6c-2,0-3.6,1.6-3.6,3.6c0,2,1.6,3.6,3.6,3.6C22,12.8,23.6,11.2,23.6,9.2 M32,15.2h-5.6l-1.2,2.4h5.1l2.6,7.7
	L32,26.3c0.9,0.8,1.3,1.5,1.3,1.5l0.3-0.2l2.2,6.7H4.2l2.4-7.2c0.1,0.1,0.1,0.1,0.2,0.2l1.3-2c-0.3-0.2-0.5-0.4-0.7-0.5l2.4-7.2h5.1
	c-0.5-1-0.9-1.8-1.2-2.4H8L0.9,36.7h38.3L32,15.2z"/>
<g display="none">
	<path display="inline" fill="#FFFFFF" d="M16.8,32.1c0-0.4,0.4-0.8,1-0.8h4c0.5,0,1,0.3,1,0.8c0,0.4-0.4,0.8-1,0.8h-4
		C17.2,32.9,16.8,32.5,16.8,32.1"/>
	<path display="inline" fill="#FFFFFF" d="M16.8,34.5c0-0.4,0.4-0.8,1-0.8h4c0.5,0,1,0.3,1,0.8s-0.4,0.8-1,0.8h-4
		C17.2,35.3,16.8,35,16.8,34.5"/>
	<path display="inline" fill="#FFFFFF" d="M18.3,37c0-0.4,0.4-0.8,1-0.8h1c0.5,0,1,0.3,1,0.8c0,0.4-0.4,0.8-1,0.8h-1
		C18.7,37.7,18.3,37.4,18.3,37"/>
	<path display="inline" fill="#FFFFFF" d="M8.7,18.6c0-0.6-0.5-1-1-1h-3c-0.6,0-1,0.5-1,1c0,0.6,0.5,1,1,1h3
		C8.2,19.6,8.7,19.1,8.7,18.6"/>
	<path display="inline" fill="#FFFFFF" d="M9.8,11.5L7.3,10C7.1,9.9,6.9,9.9,6.8,9.9c-0.4,0-0.7,0.2-0.9,0.5
		c-0.1,0.2-0.2,0.5-0.1,0.8c0.1,0.3,0.2,0.5,0.5,0.6l2.6,1.5c0.2,0.1,0.3,0.1,0.5,0.1c0.4,0,0.7-0.2,0.9-0.5
		c0.1-0.2,0.2-0.5,0.1-0.8C10.2,11.9,10.1,11.7,9.8,11.5"/>
	<path display="inline" fill="#FFFFFF" d="M13.2,4.8c-0.2-0.3-0.5-0.5-0.9-0.5c-0.2,0-0.4,0-0.5,0.1c-0.5,0.3-0.7,0.9-0.4,1.4
		l1.5,2.6c0.2,0.3,0.5,0.5,0.9,0.5c0.2,0,0.4,0,0.5-0.1c0.5-0.3,0.7-0.9,0.4-1.4L13.2,4.8z"/>
	<path display="inline" fill="#FFFFFF" d="M20,2.3c-0.6,0-1,0.5-1,1v3c0,0.6,0.5,1,1,1c0.6,0,1-0.5,1-1v-3C21,2.7,20.6,2.3,20,2.3"
		/>
	<path display="inline" fill="#FFFFFF" d="M28.2,4.5c-0.2-0.1-0.3-0.1-0.5-0.1c-0.4,0-0.7,0.2-0.9,0.5l-1.5,2.6
		c-0.3,0.5-0.1,1.1,0.4,1.4c0.2,0.1,0.3,0.1,0.5,0.1c0.4,0,0.7-0.2,0.9-0.5l1.5-2.6c0.1-0.2,0.2-0.5,0.1-0.8
		C28.6,4.8,28.4,4.6,28.2,4.5"/>
	<path display="inline" fill="#FFFFFF" d="M30.7,13.4c0.2,0,0.4,0,0.5-0.1l2.6-1.5c0.5-0.3,0.7-0.9,0.4-1.4
		c-0.2-0.3-0.5-0.5-0.9-0.5c-0.2,0-0.4,0-0.5,0.1l-2.6,1.5c-0.5,0.3-0.7,0.9-0.4,1.4C30,13.2,30.3,13.4,30.7,13.4"/>
	<path display="inline" fill="#FFFFFF" d="M35.3,17.5h-3c-0.6,0-1,0.5-1,1c0,0.6,0.5,1,1,1h3c0.6,0,1-0.5,1-1
		C36.3,18,35.8,17.5,35.3,17.5"/>
	<path display="inline" fill="#FFFFFF" d="M33.7,25.3l-2.6-1.5c-0.2-0.1-0.3-0.1-0.5-0.1c-0.4,0-0.7,0.2-0.9,0.5
		c-0.1,0.2-0.2,0.5-0.1,0.8c0.1,0.3,0.2,0.5,0.5,0.6l2.6,1.5c0.2,0.1,0.3,0.1,0.5,0.1c0.4,0,0.7-0.2,0.9-0.5
		c0.1-0.2,0.2-0.5,0.1-0.8C34.2,25.7,34,25.5,33.7,25.3"/>
	<path display="inline" fill="#FFFFFF" d="M9.3,23.7c-0.2,0-0.4,0-0.5,0.1l-2.6,1.5c-0.5,0.3-0.7,0.9-0.4,1.4
		c0.2,0.3,0.5,0.5,0.9,0.5c0.2,0,0.4,0,0.5-0.1l2.6-1.5c0.5-0.3,0.7-0.9,0.4-1.4C10,23.9,9.7,23.7,9.3,23.7"/>
	<path display="inline" fill="#FFFFFF" d="M27.9,15.1c-1.3-3-4.3-4.7-8.1-4.7c-3.8,0-6.8,1.7-8.1,4.7c-1.5,3.3-0.7,7.6,2,10.6
		c1.5,1.7,2,2.5,2.3,3.4c0.2,0.7,0.4,1.3,1,1.3h0c0.1,0,5.1,0,5.1,0c0.7,0,1.1-0.7,1.3-1.3c0.1-0.3,0.9-1.5,2.6-3.5
		C28.6,22.7,29.4,18.4,27.9,15.1"/>
</g>
<path fill="#FFFFFF" d="M30.3,5.3v1.8h-3.8V5.3H13.4v1.8H9.7V5.3H5.9v29.4h28.2V5.3H30.3z M7.8,12.6h24.5v20.2H7.8V12.6z M26.6,20
	h3.8v-3.7h-3.8V20z M20.9,20h3.8v-3.7h-3.8V20z M15.3,20h3.8v-3.7h-3.8V20z M26.6,25.5h3.8v-3.7h-3.8V25.5z M20.9,25.5h3.8v-3.7
	h-3.8V25.5z M15.3,25.5h3.8v-3.7h-3.8V25.5z M9.7,25.5h3.8v-3.7H9.7V25.5z M20.9,31h3.8v-3.7h-3.8V31z M15.3,31h3.8v-3.7h-3.8V31z
	 M9.7,31h3.8v-3.7H9.7V31z"/>
<path display="none" fill="#FFFFFF" d="M37.3,32.8H2.7V7.2h34.6V32.8z M6.8,30.4h26.4l-8.7-8.7l-1.6,1.6c-0.7,0.7-1.7,1.1-2.8,1.1
	c0,0,0,0,0,0c-1.1,0-2.1-0.4-2.8-1.1l-1.7-1.7L6.8,30.4z M5.1,11.3v17.5l8.7-8.8L5.1,11.3z M26.2,20l8.7,8.7V11.5L26.2,20z M6.8,9.6
	L19,21.6c0.3,0.3,0.7,0.4,1.1,0.4h0c0.4,0,0.8-0.1,1.1-0.4L33.4,9.6H6.8z"/>
</svg>
