<?xml version="1.0" encoding="utf-8"?>
<!-- Generator: Adobe Illustrator 22.0.0, SVG Export Plug-In . SVG Version: 6.00 Build 0)  -->
<svg version="1.1" id="Layer_1" xmlns="http://www.w3.org/2000/svg" xmlns:xlink="http://www.w3.org/1999/xlink" x="0px" y="0px"
	 viewBox="0 0 511 511" style="enable-background:new 0 0 511 511;" xml:space="preserve">
<style type="text/css">
	.st0{fill:#FFFFFF;}
</style>
<path class="st0" d="M16,301.4h61.9c8.3,0,15-6.7,15-15V136.7c0-8.3-6.7-15-15-15H16c-8.3,0-15,6.7-15,15v149.7
	C1,294.7,7.7,301.4,16,301.4z"/>
<path class="st0" d="M503.2,459.9L418,374.7c-5.8-5.8-15.3-5.8-21.2,0l-21.3-21.3c10.4-14.7,16.7-32.5,16.7-51.9
	c0-49.6-40.2-89.8-89.8-89.8s-89.8,40.2-89.8,89.8s40.2,89.8,89.8,89.8c19.4,0,37.2-6.3,51.9-16.7l21.3,21.3l0,0
	c-5.8,5.8-5.8,15.3,0,21.2l85.2,85.2c11.7,11.7,30.7,11.7,42.3,0C514.9,490.6,514.9,471.6,503.2,459.9z"/>
<path class="st0" d="M392.2,15c0-8.3-6.7-15-15-15h-59.9c-8.3,0-15,6.7-15,15v166.7c35.9,0,67.9,16.2,89.8,41.4V15z"/>
<path class="st0" d="M182.6,301.4c0-44.1,24.3-82.3,59.9-103.1V76.8c0-8.3-6.7-15-15-15h-59.9c-8.3,0-15,6.7-15,15v209.6
	c0,8.3,6.7,15,15,15H182.6z"/>
</svg>
